# xmcd
#
# Track frame offsets:
#	225
#	25330
#	43617
#	59060
#	74941
#	91116
#	106841
#	120236
#	136099
#	152864
#	168375
#	188614
#	205899
#	222351
#	237585
#
# Disc length: 3342 seconds
#
# Revision: 2
# Processed by: cddbd v1.5.1PL0 Copyright (c) Steve Scherf et al.
# Submitted via: dBpowerAMP V4.0
#
DISCID=d80d0b0f
DTITLE=Los Luceros Del Valle - Estamos De Vuelta
DYEAR=2003
DGENRE=Cumbias rancheras
TTITLE0=Aqui Estamos Los Luceros
TTITLE1=La Muerte Del Mión
TTITLE2=Los Marcianos
TTITLE3=Cumpa Eliodoro
TTITLE4=Maria Isabel
TTITLE5=Jalaito
TTITLE6=Morenita Labios Rojos
TTITLE7=Solo Sé Quererte - Caminos De Espinas
TTITLE8=Chaparrita Consentida
TTITLE9=El Ermitaño
TTITLE10=Novia De Blanco
TTITLE11=Homenaje A Gato Alquinta
TTITLE12=Por Tus Ojitos
TTITLE13=Manolito El Choro
TTITLE14=Sangre De Rey
EXTD=
EXTT0=
EXTT1=
EXTT2=
EXTT3=
EXTT4=
EXTT5=
EXTT6=
EXTT7=
EXTT8=
EXTT9=
EXTT10=
EXTT11=
EXTT12=
EXTT13=
EXTT14=
PLAYORDER=
